<?xml version="1.0" encoding="utf-8"?>
<!-- Generator: Adobe Illustrator 22.0.1, SVG Export Plug-In . SVG Version: 6.00 Build 0)  -->
<svg version="1.1" id="Layer_1" xmlns="http://www.w3.org/2000/svg" xmlns:xlink="http://www.w3.org/1999/xlink" x="0px" y="0px"
	 viewBox="0 0 683.1 1080" style="enable-background:new 0 0 683.1 1080;" xml:space="preserve">
<g>
	<path d="M261.1,1.1c51.8,0,103.6,0,155.4,0c1.7,0.3,3.5,0.7,5.2,0.8c11,0.7,22.1,0.3,32.8,2.2c19.4,3.4,37.3,11.4,54.2,21.4
		c32.9,19.6,57.1,46.9,72.8,81.9c11.5,25.8,14.3,53.1,14.5,80.9c0.3,52.8,0.5,105.7,0.7,158.5c0,8.5,0,8.7,8.4,11.3
		c50.8,16,76.8,58.4,79.7,105.7c-29.1,0-58.2,0-87.8,0c0,2.4,0,4.2,0,6c-0.2,31.3-0.4,62.7-0.6,94c-0.5,113-0.9,226.1-1.7,339.1
		c-0.1,14.2,0.1,29-3.4,42.6c-13.4,52-43.6,91.6-91.8,116.5c-16.3,8.4-33.2,15.1-51.6,17.4c-6.8,0.8-13.7,1.1-20.6,1.7
		c-58,0-116.1,0-174.1,0c-3.4-0.4-6.8-0.7-10.2-1.1c-4.5-0.5-9.2-0.5-13.6-1.6c-55.6-13.8-98.1-44.8-123-97.2
		c-6.7-14-12.1-29.2-14.7-44.4c-2.9-16.7-2.4-34-2.5-51c-0.6-82.6-0.9-165.2-1.2-247.8c-0.2-56-0.1-112-0.2-168c0-1.9,0-3.9,0-6.1
		c-23.2,0-45.6,0.1-67.9,0c-4.6,0-9.2-0.5-13.7-1c-4.6-0.5-7-3.1-6.3-7.8c3.9-24.9,13-47.4,30.4-66.1C45,373.3,62.8,363.3,83,357.3
		c4.1-1.2,5.2-2.9,5.2-7.1c0-52.2,0-104.3,0.5-156.5c0.2-15.9,0.2-32.1,3.2-47.6C104.1,84.4,139.4,40.3,197,14.7
		C214.4,7,232.6,1.5,252,2C255,2.1,258.1,1.4,261.1,1.1z M187.5,463.8c9.3-1.2,18-2.7,26.7-3.3c30.5-2.3,61-5.5,91.6-6
		c38.3-0.7,76.7,0.3,115,1.9c23.7,1,47.4,4.1,71,6.8c4,0.4,5.8,0.4,7.1-3.7c13.3-41.1,26.6-82.2,40.2-123.2c1.3-4,0.4-5.7-3.1-7.6
		c-22.8-12.2-47.1-20.5-72.1-26.8c-26.8-6.7-54-11.1-81.7-12.3c-29.3-1.2-58.5-3.3-87.9,0c-31.6,3.6-62.9,8.7-93.4,17.9
		c-19.6,5.9-38.5,13.4-56.8,24.2C158.5,375.7,173,419.6,187.5,463.8z M341.9,937.9c43.7,0,86.9-4,129.3-15.5
		c21.9-5.9,43-13.9,62.9-24.8c5-2.7,6.5-5.3,4.4-11.2c-7.3-20.3-13.7-40.9-20.7-61.3c-6.4-18.6-13.2-37.1-19.8-55.6
		c-1.5-4.3-3.9-6.5-9-5.9c-12.3,1.5-24.7,2.8-37.1,3.5c-33.3,1.9-66.6,4.1-100,4.8c-26.7,0.6-53.5-0.3-80.2-1.7
		c-26-1.4-51.8-4.3-77.7-7c-4.8-0.5-6.5,0.2-8.1,4.9c-13.1,39.9-26.3,79.7-39.9,119.5c-1.6,4.7-0.6,7.3,3.4,9
		c15.3,6.9,30.2,14.8,46,20.1C242.9,932.7,292.1,937.9,341.9,937.9z"/>
</g>
</svg>
